<?xml version="1.0" standalone="no"?>
<!DOCTYPE svg PUBLIC "-//W3C//DTD SVG 20010904//EN"
 "http://www.w3.org/TR/2001/REC-SVG-20010904/DTD/svg10.dtd">
<svg version="1.0" xmlns="http://www.w3.org/2000/svg"
 width="500.000000pt" height="500.000000pt" viewBox="0 0 500.000000 500.000000"
 preserveAspectRatio="xMidYMid meet">

<g transform="translate(0.000000,500.000000) scale(0.100000,-0.100000)"
fill="#000000" stroke="none">
<path d="M167 3793 c-4 -3 -7 -586 -7 -1295 l0 -1288 305 0 305 0 0 1295 0
1295 -298 0 c-164 0 -302 -3 -305 -7z"/>
<path d="M1387 3793 c-4 -3 -7 -586 -7 -1295 l0 -1288 305 0 305 0 0 1295 0
1295 -298 0 c-164 0 -302 -3 -305 -7z"/>
<path d="M2260 2500 l0 -1290 793 0 c857 0 955 5 1143 54 112 30 251 89 326
139 133 89 242 245 273 393 19 89 19 224 0 316 -32 155 -140 316 -272 404 -32
21 -62 42 -67 46 -5 4 11 26 37 48 68 60 142 177 173 273 22 68 27 100 27 192
0 229 -86 399 -266 523 -118 81 -218 122 -407 164 -92 21 -121 22 -927 25
l-833 4 0 -1291z m1382 560 c70 -20 101 -98 59 -152 -32 -40 -82 -48 -290 -48
l-191 0 0 105 0 105 193 0 c105 0 209 -5 229 -10z m138 -915 c76 -45 73 -152
-6 -191 -35 -17 -67 -19 -296 -22 l-258 -4 0 122 0 121 263 -3 c243 -3 265 -5
297 -23z"/>
</g>
</svg>
